<svg width="214" height="24" viewBox="0 0 214 24" fill="none" xmlns="http://www.w3.org/2000/svg">
<path d="M18 2H15C13.6739 2 12.4021 2.52678 11.4645 3.46447C10.5268 4.40215 10 5.67392 10 7V10H7V14H10V22H14V14H17L18 10H14V7C14 6.73478 14.1054 6.48043 14.2929 6.29289C14.4804 6.10536 14.7348 6 15 6H18V2Z" fill="white"/>
<path d="M118 3C117.042 3.67548 115.982 4.19211 114.86 4.53C114.258 3.83751 113.457 3.34669 112.567 3.12393C111.677 2.90116 110.739 2.9572 109.882 3.28445C109.025 3.61171 108.288 4.1944 107.773 4.95372C107.258 5.71303 106.988 6.61234 107 7.53V8.53C105.243 8.57557 103.501 8.18581 101.931 7.39545C100.361 6.60508 99.0103 5.43864 98 4C98 4 94 13 103 17C100.941 18.398 98.4872 19.0989 96 19C105 24 116 19 116 7.5C115.999 7.22145 115.972 6.94359 115.92 6.67C116.941 5.66349 117.661 4.39271 118 3V3Z" fill="white"/>
<path d="M206 8C207.591 8 209.117 8.63214 210.243 9.75736C211.368 10.8826 212 12.4087 212 14V21H208V14C208 13.4696 207.789 12.9609 207.414 12.5858C207.039 12.2107 206.53 12 206 12C205.47 12 204.961 12.2107 204.586 12.5858C204.211 12.9609 204 13.4696 204 14V21H200V14C200 12.4087 200.632 10.8826 201.757 9.75736C202.883 8.63214 204.409 8 206 8V8Z" fill="white"/>
<path d="M196 9H192V21H196V9Z" fill="white"/>
<path d="M194 6C195.105 6 196 5.10457 196 4C196 2.89543 195.105 2 194 2C192.895 2 192 2.89543 192 4C192 5.10457 192.895 6 194 6Z" fill="white"/>
</svg>
